<svg width="90" height="94" viewBox="0 0 90 94" fill="none" xmlns="http://www.w3.org/2000/svg">
<circle opacity="0.1" cx="31" cy="31" r="31" fill="#6BB4FF"/>
<circle opacity="0.3" cx="71.5" cy="75.5" r="18.5" fill="#6BB4FF"/>
<path d="M35.8494 66.1732C24.9485 52.3429 41.241 45.0177 41.241 45.0177L42.6469 47.1277L47.8049 34H33.0351L35.0276 36.4613C32.3318 37.5748 28.5233 41.3252 28.5233 41.3252C28.5233 41.3252 20.9048 49.0614 22.1343 60.1378C23.3654 71.2143 30.1049 71.9757 30.1049 71.9757L43.3494 71.6244C40.0091 71.39 35.8494 66.1732 35.8494 66.1732Z" fill="#286BB1"/>
<path d="M48.3898 43.3772C44.6402 43.7285 42.8814 49.2377 42.8814 49.2377C40.1789 57.9772 38.0923 62.6167 37.0511 64.6663L36.8755 65.0319C39.2427 68.3756 41.8083 70.0184 44.5873 70.9369C46.478 71.0773 49.2696 63.7714 49.2696 63.7714C51.6335 57.5982 52.8066 54.8638 54.8965 49.531C55.2352 48.6772 56.8839 43.6747 60.5797 43.3461C58.1133 43.2671 51.4192 43.0932 48.3898 43.3772Z" fill="#286BB1"/>
<path d="M69.1361 53.2226C68.2873 48.0579 65.6873 45.5427 63.7604 44.3595L63.4713 44.315C63.4713 44.315 59.4797 42.8604 56.1621 50.3066C58.8058 52.5293 59.2613 57.4335 58.2335 61.4848C56.8907 66.768 50.8528 69.8066 50.8528 69.8066L49.094 67.9898L43.8192 80.9999H58.5881L56.8293 78.5386C56.8293 78.5386 62.6898 74.5545 65.2688 71.2722C67.847 67.9898 70.5428 61.7789 69.1361 53.2226Z" fill="#286BB1"/>
</svg>
