<svg width="192" height="28" viewBox="0 0 192 28" fill="none" xmlns="http://www.w3.org/2000/svg">
<path d="M34.6689 13.5411C34.6689 11.8511 34.9343 10.4328 35.4653 9.28582C35.8614 8.44098 36.4021 7.68266 37.0875 7.01106C37.7729 6.33969 38.5237 5.84166 39.3398 5.5172C40.4253 5.07977 41.6771 4.86084 43.0956 4.86084C45.6628 4.86084 47.7169 5.61906 49.2581 7.1356C50.799 8.65203 51.5698 10.761 51.5698 13.4618C51.5698 16.1403 50.805 18.2359 49.2759 19.7485C47.7466 21.2614 45.7023 22.0177 43.1431 22.0177C40.5521 22.0177 38.4919 21.2651 36.9628 19.7599C35.4335 18.2547 34.6689 16.1818 34.6689 13.5411ZM38.294 13.4279C38.294 15.3066 38.7495 16.7307 39.6607 17.7002C40.5718 18.6697 41.7287 19.1544 43.1312 19.1544C44.5337 19.1544 45.6845 18.6733 46.5839 17.7114C47.483 16.7495 47.9329 15.3066 47.9329 13.3827C47.9329 11.4814 47.4949 10.063 46.6196 9.12738C45.7439 8.19192 44.5813 7.72403 43.1312 7.72403C41.6812 7.72403 40.5124 8.19764 39.6251 9.14433C38.7376 10.0913 38.294 11.5192 38.294 13.4279Z" fill="white"/>
<path d="M62.5993 21.7346V19.9352C62.1396 20.5766 61.5356 21.0821 60.7867 21.4517C60.038 21.8213 59.2476 22.0062 58.4157 22.0062C57.5677 22.0062 56.807 21.8288 56.1337 21.4743C55.4602 21.1199 54.9729 20.6219 54.6718 19.9804C54.3706 19.3392 54.2202 18.4527 54.2202 17.321V9.71582H57.5599V15.2386C57.5599 16.9287 57.6212 17.9643 57.7442 18.3451C57.8669 18.7262 58.0907 19.0282 58.4157 19.2505C58.7404 19.4732 59.1525 19.5844 59.6517 19.5844C60.2222 19.5844 60.7333 19.4356 61.185 19.1373C61.6365 18.8394 61.9456 18.4696 62.1119 18.0282C62.2783 17.5869 62.3616 16.5062 62.3616 14.7859V9.71582H65.7013V21.7346H62.5993Z" fill="white"/>
<path d="M74.9479 9.71589V12.251H72.6659V17.0947C72.6659 18.0756 72.6877 18.647 72.7312 18.8092C72.7747 18.9717 72.8739 19.1054 73.0284 19.211C73.1829 19.3166 73.3711 19.3694 73.593 19.3694C73.9019 19.3694 74.3495 19.2676 74.936 19.0639L75.2212 21.531C74.4446 21.8479 73.5651 22.0063 72.5828 22.0063C71.9805 22.0063 71.4377 21.9101 70.9545 21.7177C70.471 21.5254 70.1166 21.2763 69.8907 20.9709C69.6649 20.6652 69.5084 20.2522 69.4213 19.7316C69.3499 19.362 69.3143 18.615 69.3143 17.4909V12.251H67.7811V9.71589H69.3143V7.32794L72.6659 5.47192V9.71589H74.9479Z" fill="white"/>
<path d="M80.4628 21.7348H77.123V9.71598H80.225V11.4249C80.7558 10.6176 81.2333 10.0857 81.6572 9.82917C82.081 9.57276 82.5624 9.44434 83.1013 9.44434C83.8619 9.44434 84.5947 9.64437 85.3001 10.0442L84.2661 12.8169C83.7033 12.47 83.1804 12.2963 82.6972 12.2963C82.2296 12.2963 81.8335 12.419 81.5086 12.6641C81.1836 12.9093 80.9282 13.3526 80.7421 13.9939C80.5558 14.6352 80.4628 15.9782 80.4628 18.0228V21.7348Z" fill="white"/>
<path d="M94.0475 17.9096L97.3753 18.4414C96.9475 19.6034 96.2719 20.4882 95.3489 21.0954C94.4258 21.7028 93.2709 22.0063 91.8844 22.0063C89.6896 22.0063 88.0651 21.3237 87.0115 19.9581C86.1795 18.8642 85.7635 17.4834 85.7635 15.816C85.7635 13.8241 86.3103 12.2643 87.4036 11.1363C88.4971 10.0085 89.8797 9.44434 91.5516 9.44434C93.4295 9.44434 94.9111 10.0348 95.9967 11.2155C97.0822 12.3964 97.6013 14.2051 97.5536 16.642H89.1865C89.2102 17.5853 89.4795 18.3189 89.9947 18.8432C90.5097 19.3677 91.1515 19.6297 91.92 19.6297C92.4431 19.6297 92.8827 19.4941 93.2393 19.2223C93.5959 18.9508 93.8651 18.5134 94.0475 17.9096ZM94.2376 14.6955C94.2139 13.7751 93.9643 13.0754 93.4889 12.5962C93.0135 12.1171 92.435 11.8775 91.7536 11.8775C91.0246 11.8775 90.4226 12.1304 89.9472 12.6358C89.4717 13.1414 89.2379 13.828 89.246 14.6955H94.2376Z" fill="white"/>
<path d="M102.771 13.3827L99.7406 12.8621C100.081 11.7004 100.668 10.8402 101.5 10.2818C102.332 9.72354 103.568 9.44434 105.208 9.44434C106.697 9.44434 107.807 9.61229 108.536 9.94798C109.265 10.2838 109.778 10.7101 110.075 11.2268C110.372 11.7437 110.52 12.6924 110.52 14.073L110.485 17.7852C110.485 18.8415 110.538 19.6204 110.645 20.122C110.752 20.624 110.952 21.1615 111.246 21.7348H107.941C107.854 21.5238 107.747 21.2105 107.621 20.7956C107.565 20.607 107.525 20.4826 107.502 20.4221C106.931 20.9502 106.321 21.3464 105.671 21.6104C105.021 21.8744 104.328 22.0063 103.591 22.0063C102.292 22.0063 101.268 21.6709 100.519 20.9993C99.7703 20.3277 99.3958 19.4789 99.3958 18.4529C99.3958 17.7737 99.5661 17.1682 99.9069 16.6364C100.248 16.1046 100.725 15.6971 101.339 15.4142C101.953 15.1312 102.839 14.8842 103.996 14.6729C105.556 14.3938 106.638 14.1335 107.24 13.892V13.5751C107.24 12.964 107.082 12.5283 106.765 12.268C106.448 12.0077 105.849 11.8775 104.97 11.8775C104.376 11.8775 103.912 11.9889 103.579 12.2114C103.247 12.434 102.977 12.8245 102.771 13.3827ZM107.24 15.9631C106.812 16.0989 106.135 16.2612 105.208 16.4498C104.281 16.6383 103.675 16.8232 103.389 17.0043C102.953 17.2985 102.736 17.672 102.736 18.1245C102.736 18.57 102.91 18.9547 103.258 19.2789C103.607 19.6034 104.051 19.7656 104.59 19.7656C105.192 19.7656 105.766 19.577 106.313 19.1999C106.717 18.9132 106.983 18.5624 107.109 18.1472C107.197 17.8757 107.24 17.359 107.24 16.5969V15.9631Z" fill="white"/>
<path d="M124.818 13.2696L121.526 13.8354C121.415 13.2093 121.164 12.7376 120.772 12.4207C120.379 12.1039 119.87 11.9455 119.244 11.9455C118.412 11.9455 117.749 12.219 117.253 12.7659C116.758 13.3131 116.511 14.2278 116.511 15.5105C116.511 16.9362 116.762 17.9435 117.265 18.5321C117.768 19.1206 118.444 19.4148 119.292 19.4148C119.926 19.4148 120.445 19.2433 120.849 18.8998C121.253 18.5565 121.538 17.9662 121.705 17.1287L124.985 17.6605C124.644 19.0942 123.99 20.1769 123.024 20.9087C122.057 21.6406 120.762 22.0063 119.137 22.0063C117.291 22.0063 115.819 21.4518 114.722 20.3428C113.624 19.2338 113.076 17.6985 113.076 15.7367C113.076 13.7525 113.626 12.2077 114.728 11.1023C115.829 9.99712 117.319 9.44434 119.197 9.44434C120.734 9.44434 121.956 9.7595 122.863 10.3893C123.771 11.0194 124.422 11.9794 124.818 13.2696Z" fill="white"/>
<path d="M130.678 5.1438V11.2438C131.755 10.0442 133.043 9.44436 134.541 9.44436C135.309 9.44436 136.002 9.58013 136.62 9.85177C137.238 10.1234 137.704 10.4706 138.017 10.893C138.33 11.3156 138.544 11.7833 138.659 12.2963C138.773 12.8095 138.831 13.6054 138.831 14.6843V21.7348H135.491V15.3859C135.491 14.126 135.428 13.3262 135.301 12.9866C135.174 12.6471 134.95 12.3774 134.629 12.1775C134.309 11.9777 133.906 11.8776 133.423 11.8776C132.869 11.8776 132.373 12.006 131.938 12.2624C131.502 12.5189 131.183 12.9057 130.981 13.4224C130.779 13.9392 130.678 14.7032 130.678 15.714V21.7348H127.338V5.1438H130.678Z" fill="white"/>
<path d="M142.242 21.7348V5.1438H147.888C150.027 5.1438 151.421 5.22696 152.071 5.39286C153.07 5.64182 153.905 6.18327 154.579 7.01688C155.252 7.85059 155.589 8.92765 155.589 10.2479C155.589 11.2665 155.395 12.1229 155.007 12.8169C154.619 13.5111 154.125 14.0561 153.527 14.4523C152.929 14.8483 152.321 15.1106 151.703 15.2388C150.863 15.3973 149.647 15.4764 148.054 15.4764H145.76V21.7348H142.242ZM145.76 7.9505V12.6585H147.686C149.072 12.6585 149.999 12.5718 150.467 12.3982C150.934 12.2247 151.301 11.9531 151.566 11.5834C151.831 11.2138 151.964 10.7837 151.964 10.2932C151.964 9.68965 151.778 9.19173 151.406 8.79934C151.033 8.40705 150.562 8.16187 149.991 8.06369C149.571 7.9883 148.727 7.9505 147.46 7.9505H145.76V7.9505Z" fill="white"/>
<path d="M165.763 17.9096L169.091 18.4414C168.663 19.6034 167.987 20.4882 167.064 21.0954C166.141 21.7028 164.986 22.0063 163.6 22.0063C161.405 22.0063 159.781 21.3237 158.727 19.9581C157.895 18.8642 157.479 17.4834 157.479 15.816C157.479 13.8241 158.026 12.2643 159.119 11.1363C160.213 10.0085 161.595 9.44434 163.267 9.44434C165.145 9.44434 166.627 10.0348 167.712 11.2155C168.798 12.3964 169.317 14.2051 169.269 16.642H160.902C160.926 17.5853 161.195 18.3189 161.71 18.8432C162.225 19.3677 162.867 19.6297 163.636 19.6297C164.159 19.6297 164.598 19.4941 164.955 19.2223C165.311 18.9508 165.581 18.5134 165.763 17.9096ZM165.953 14.6955C165.929 13.7751 165.68 13.0754 165.204 12.5962C164.729 12.1171 164.151 11.8775 163.469 11.8775C162.74 11.8775 162.138 12.1304 161.663 12.6358C161.187 13.1414 160.953 13.828 160.961 14.6955H165.953Z" fill="white"/>
<path d="M177.779 9.71589V12.251H175.497V17.0947C175.497 18.0756 175.519 18.647 175.562 18.8092C175.606 18.9717 175.705 19.1054 175.859 19.211C176.014 19.3166 176.202 19.3694 176.424 19.3694C176.733 19.3694 177.181 19.2676 177.767 19.0639L178.052 21.531C177.276 21.8479 176.396 22.0063 175.414 22.0063C174.812 22.0063 174.269 21.9101 173.785 21.7177C173.302 21.5254 172.948 21.2763 172.722 20.9709C172.496 20.6652 172.339 20.2522 172.252 19.7316C172.181 19.362 172.145 18.615 172.145 17.4909V12.251H170.612V9.71589H172.145V7.32794L175.497 5.47192V9.71589H177.779Z" fill="white"/>
<path d="M187.406 17.9096L190.734 18.4414C190.306 19.6034 189.63 20.4882 188.707 21.0954C187.784 21.7028 186.629 22.0063 185.243 22.0063C183.048 22.0063 181.424 21.3237 180.37 19.9581C179.538 18.8642 179.122 17.4834 179.122 15.816C179.122 13.8241 179.669 12.2643 180.762 11.1363C181.855 10.0085 183.238 9.44434 184.91 9.44434C186.788 9.44434 188.27 10.0348 189.355 11.2155C190.441 12.3964 190.96 14.2051 190.912 16.642H182.545C182.569 17.5853 182.838 18.3189 183.353 18.8432C183.868 19.3677 184.51 19.6297 185.279 19.6297C185.802 19.6297 186.241 19.4941 186.598 19.2223C186.954 18.9508 187.224 18.5134 187.406 17.9096ZM187.596 14.6955C187.572 13.7751 187.323 13.0754 186.847 12.5962C186.372 12.1171 185.794 11.8775 185.112 11.8775C184.383 11.8775 183.781 12.1304 183.306 12.6358C182.83 13.1414 182.596 13.828 182.604 14.6955H187.596Z" fill="white"/>
<path d="M26.3272 9.88636C23.3861 4.09629 19.3667 0.155627 17.3495 1.08465C15.3324 2.01366 16.0814 7.46056 19.0225 13.2506C21.9636 19.0407 25.9831 22.9814 28.0002 22.0523C30.0174 21.1233 29.2683 15.6764 26.3272 9.88636ZM26.5909 18.7205C25.738 19.1133 23.3677 16.1266 21.2967 12.0495C19.2257 7.97241 18.2383 4.34882 19.0912 3.956C19.9441 3.56317 22.3144 6.54986 24.3854 10.627C26.4564 14.7041 27.4438 18.3276 26.5909 18.7205Z" fill="white"/>
<path d="M23.9794 21.5919L5.58837 22.1877C3.40838 19.7807 3.43899 17.6942 3.43899 17.6942L15.2247 4.27832C15.24 4.64315 15.2753 5.03881 15.3348 5.46809C15.6644 7.86445 16.6537 10.7758 18.1216 13.6654C19.4346 16.25 21.0355 18.6099 22.6287 20.3108C23.0242 20.7323 23.4821 21.1806 23.9794 21.5919Z" fill="white"/>
<path d="M2.79421 17.7384C2.79421 17.7384 2.47178 20.8963 5.17399 22.5483C5.17399 22.5483 5.11258 23.4109 4.23743 23.5571C3.36228 23.7033 2.01118 22.0805 1.55057 20.8817C1.08997 19.6828 0.921083 18.6302 1.27421 17.8408C1.62734 17.0513 2.67138 17.5484 2.79421 17.7384Z" fill="white"/>
<path d="M12.4208 22.8844V23.7762C12.4208 24.5675 13.0945 25.209 13.9255 25.209H15.4608C16.2918 25.209 16.9654 24.5675 16.9654 23.7762V22.7236H19.0382V23.9371C19.0382 25.6569 17.574 27.051 15.7679 27.051H13.6952C11.889 27.051 10.4249 25.6569 10.4249 23.9371V22.8698L12.4208 22.8844Z" fill="white"/>
</svg>
